<svg xmlns="http://www.w3.org/2000/svg" viewBox="0 0 655.06 657.71"><defs><style>.cls-1{fill:#fff;}</style></defs><title>Asset 1</title><g id="Layer_2" data-name="Layer 2"><g id="Layer_1-2" data-name="Layer 1"><path class="cls-1" d="M29.2,368.15H52.27a0,0,0,0,1,0,0v39.11A23.07,23.07,0,0,1,29.2,430.32h0a0,0,0,0,1,0,0V368.15A0,0,0,0,1,29.2,368.15Z" transform="translate(-270.07 145.37) rotate(-44.93)"/><path class="cls-1" d="M61.87,335.57H84.93a0,0,0,0,1,0,0v39.11a23.07,23.07,0,0,1-23.07,23.07h0a0,0,0,0,1,0,0V335.57A0,0,0,0,1,61.87,335.57Z" transform="translate(-237.52 158.92) rotate(-44.93)"/><path class="cls-1" d="M94.53,303h23.07a0,0,0,0,1,0,0v39.11a23.07,23.07,0,0,1-23.07,23.07h0a0,0,0,0,1,0,0V303A0,0,0,0,1,94.53,303Z" transform="translate(-204.97 172.47) rotate(-44.93)"/><path class="cls-1" d="M127.19,270.4h23.07a0,0,0,0,1,0,0v39.11a23.07,23.07,0,0,1-23.07,23.07h0a0,0,0,0,1,0,0V270.4a0,0,0,0,1,0,0Z" transform="translate(-172.42 186.02) rotate(-44.93)"/><path class="cls-1" d="M159.85,237.82h23.07a0,0,0,0,1,0,0v39.11A23.07,23.07,0,0,1,159.85,300h0a0,0,0,0,1,0,0V237.82A0,0,0,0,1,159.85,237.82Z" transform="translate(-139.87 199.57) rotate(-44.93)"/><path class="cls-1" d="M192.51,205.24h23.07a0,0,0,0,1,0,0v39.11a23.07,23.07,0,0,1-23.07,23.07h0a0,0,0,0,1,0,0V205.24A0,0,0,0,1,192.51,205.24Z" transform="translate(-107.32 213.12) rotate(-44.93)"/><path class="cls-1" d="M225.17,172.66h23.07a0,0,0,0,1,0,0v62.17a0,0,0,0,1,0,0h0a23.07,23.07,0,0,1-23.07-23.07V172.66A0,0,0,0,1,225.17,172.66Z" transform="translate(-74.77 226.67) rotate(-44.93)"/><path class="cls-1" d="M257.83,140.07H280.9a0,0,0,0,1,0,0v62.17a0,0,0,0,1,0,0h0a23.07,23.07,0,0,1-23.07-23.07V140.07A0,0,0,0,1,257.83,140.07Z" transform="translate(-42.22 240.23) rotate(-44.93)"/><path class="cls-1" d="M290.49,107.49h23.07a0,0,0,0,1,0,0v62.17a0,0,0,0,1,0,0h0a23.07,23.07,0,0,1-23.07-23.07V107.49A0,0,0,0,1,290.49,107.49Z" transform="translate(-9.67 253.78) rotate(-44.93)"/><path class="cls-1" d="M323.15,74.91h23.07a0,0,0,0,1,0,0v62.17a0,0,0,0,1,0,0h0A23.07,23.07,0,0,1,323.15,114V74.91A0,0,0,0,1,323.15,74.91Z" transform="translate(22.88 267.33) rotate(-44.93)"/><path class="cls-1" d="M355.81,42.33h23.07a0,0,0,0,1,0,0V104.5a0,0,0,0,1,0,0h0a23.07,23.07,0,0,1-23.07-23.07V42.33a0,0,0,0,1,0,0Z" transform="translate(55.43 280.88) rotate(-44.93)"/><path class="cls-1" d="M-43.33,167H414.49a36.36,36.36,0,0,1,36.36,36.36v0a0,0,0,0,1,0,0H-79.69a0,0,0,0,1,0,0v0A36.36,36.36,0,0,1-43.33,167Z" transform="translate(-76.57 185.14) rotate(-44.93)"/><path class="cls-1" d="M388.47,9.75h23.07a0,0,0,0,1,0,0V71.92a0,0,0,0,1,0,0h0a23.07,23.07,0,0,1-23.07-23.07V9.75a0,0,0,0,1,0,0Z" transform="translate(87.98 294.43) rotate(-44.93)"/><path class="cls-1" d="M100.16,409.93h435a0,0,0,0,1,0,0v19.69a0,0,0,0,1,0,0H80.47a0,0,0,0,1,0,0v0A19.69,19.69,0,0,1,100.16,409.93Z"/><path class="cls-1" d="M586.56,351.27a68.5,68.5,0,1,0,68.5,68.5A68.5,68.5,0,0,0,586.56,351.27Zm0,117.53a49,49,0,1,1,49-49A49,49,0,0,1,586.56,468.8Z"/><path class="cls-1" d="M192,301.23H646.67a0,0,0,0,1,0,0v19.69a0,0,0,0,1,0,0h-435A19.69,19.69,0,0,1,192,301.23v0A0,0,0,0,1,192,301.23Z" transform="translate(731.1 -107.77) rotate(90.09)"/><path class="cls-1" d="M419,520.71a68.5,68.5,0,1,0,68.39,68.61A68.5,68.5,0,0,0,419,520.71Zm-.19,117.53a49,49,0,1,1,49.11-49A49,49,0,0,1,418.82,638.24Z"/><circle class="cls-1" cx="418.9" cy="419.04" r="8.22"/></g></g></svg>